<?xml version="1.0" encoding="utf-8"?>
<!-- Generator: Adobe Illustrator 19.1.0, SVG Export Plug-In . SVG Version: 6.00 Build 0)  -->
<svg version="1.1" id="Layer_1" xmlns="http://www.w3.org/2000/svg" xmlns:xlink="http://www.w3.org/1999/xlink" x="0px" y="0px"
	 viewBox="0 0 1 1" style="enable-background:new 0 0 1 1;" xml:space="preserve">
<style type="text/css">
	.st0{fill:#2E3D49;}
	.st1{fill:#02B3E4;}
</style>
<g>
	<g id="wordmark" transform="translate(46 8)">
		<path class="st0" d="M12,9.6c0,2.6-2.1,4.5-5,4.5s-5-1.9-5-4.5V0H0v9.7C0,13.1,2.9,16,7,16s7-3,7-6.3V0h-2V9.6L12,9.6z M28.4,0H23
			v16h5.4c4.5,0,7.6-3.1,7.6-8C36,3.2,32.9,0,28.4,0L28.4,0z M28.2,14H25V2h3.2C31.6,2,34,4.3,34,8C34,12,31.5,13.9,28.2,14L28.2,14
			z M72,14.3c-3.6,0-6-2.7-6-6.3s2.5-6.2,6-6.2c2.8,0,4.5,1.6,4.5,1.6L77.3,2c0,0-1.8-1.9-5.5-1.9C67,0.1,64,3.7,64,8
			c0,4.4,3.1,8.1,8,8.1c3.8,0,5.7-2.6,5.7-2.6l-1.1-1.2C76.5,12.2,75,14.3,72,14.3L72,14.3z"/>
		<rect x="87" class="st0" width="2" height="16"/>
		<polygon class="st0" points="98,2 103,2 103,16 105,16 105,2 110,2 110,0 98,0 		"/>
		<polygon class="st0" points="128.8,0 124,7.3 119.1,0 117,0 123,8.9 123,16 125,16 125,8.9 130.9,0 		"/>
		<path class="st0" d="M48.9,0l-6.2,16h2l1.7-4.6l6.5-1.4l2.2,6h2L51,0H48.9L48.9,0z M47,9.5l3-7.4h0.1l2.5,6.3L47,9.5L47,9.5z"/>
	</g>
	<path class="st1" d="M29,0.1l-9,4.7l0,0v14.9c0,0.6,0,1.3-0.2,1.9c-0.1,0.6-0.3,1.2-0.5,1.7c-0.1,0.1-0.1,0.3-0.2,0.4
		c-0.3,0-2.5-0.7-3.5-1.4c-0.4-0.3-0.8-0.6-1.2-1c-0.4-0.4-0.7-0.8-1-1.2c-0.3-0.4-0.6-0.9-0.8-1.4c-0.2-0.5-0.4-1-0.5-1.6
		C12,16.6,12,16,12,15.5V1.2L10,0L0,5.9v13.7C0,25.9,5.1,31,11.3,31c2.1,0,4-0.5,5.7-1.5l8.4-4.8c3.3-1.7,5.6-5.2,5.6-9.1V1.3
		L29,0.1L29,0.1z M17.9,26.2c-0.9,0.9-1.6,1.4-2.6,1.9c-0.6,0.2-1.3,0.5-1.9,0.7c-0.6,0.1-1.2,0.2-1.8,0.2c-0.6,0-1.6-0.1-2.2-0.2
		c-0.6-0.1-1.2-0.3-1.7-0.5c-0.5-0.2-1.1-0.5-1.6-0.9c-1.3-0.9-1.9-1.7-2.5-2.5c-0.3-0.5-0.6-1-0.9-1.6c-0.2-0.6-0.4-1.1-0.5-1.7
		C2,20.9,2,20.2,2,19.6V7.1l8-4.7v13.1l0,0c0,5,3.7,9.1,8.4,10.1C18.2,25.8,18.1,26,17.9,26.2L17.9,26.2z M28.9,17.2
		c-0.1,0.5-0.3,1-0.5,1.5c-0.2,0.5-0.6,1.2-1,1.7c-0.6,0.7-1.2,1.2-2.7,2.1c-1.3,0.7-2.4,0.9-3.1,1.1c0.5-1.2,0.5-2.5,0.5-3.9L22,6
		l7-3.7v13.3C29,16.1,29,16.7,28.9,17.2L28.9,17.2z"/>
</g>
</svg>
